Coordinates
version=1
nRows=11
nColumns=40
inDegrees=yes

Units are S.I. units (second, meters, Newtons, ...)
Angles are in degrees.

endheader
time	pelvis_tilt	pelvis_list	pelvis_rotation	pelvis_tx	pelvis_ty	pelvis_tz	hip_flexion_r	hip_adduction_r	hip_rotation_r	knee_angle_r	knee_angle_r_beta	ankle_angle_r	subtalar_angle_r	mtp_angle_r	hip_flexion_l	hip_adduction_l	hip_rotation_l	knee_angle_l	knee_angle_l_beta	ankle_angle_l	subtalar_angle_l	mtp_angle_l	lumbar_extension	lumbar_bending	lumbar_rotation	arm_flex_r	arm_add_r	arm_rot_r	elbow_flex_r	pro_sup_r	wrist_flex_r	wrist_dev_r	arm_flex_l	arm_add_l	arm_rot_l	elbow_flex_l	pro_sup_l	wrist_flex_l	wrist_dev_l
     28.26500000	     -3.99647354	     -5.82137531	      8.23310725	      0.84492473	      0.92023989	      0.50986826	     -2.26501874	      6.46663086	    -19.92184573	      7.64393374	      7.64393374	     16.51014541	      6.38275108	     -4.39239606	     32.71436898	     -6.42590578	     -4.02445606	     18.77217418	     18.77217418	      3.57495290	     -6.01660144	      8.41033797	     -7.37381351	      7.01680846	      5.23553999	     41.19991711	    -18.42709672	    -13.79508271	     83.45549828	     44.90023332	      0.00000000	      0.00000000	    -13.81641780	     -7.21137224	      6.34210193	     23.59726573	     44.62233109	      0.00000000	      0.00000000
     28.27707143	     -4.03143966	     -5.75643267	      8.03458167	      0.84616871	      0.91913536	      0.50819994	     -2.48874524	      6.16152866	    -19.85984588	      8.43435574	      8.43435574	     17.43316946	      6.59593329	     -3.43083380	     32.23975100	     -6.13731215	     -3.51340764	     19.65750040	     19.65750040	      3.00671219	     -7.18647520	      8.01011160	     -7.14428823	      6.90942570	      5.45321084	     40.74066572	    -18.41888211	    -13.98561811	     83.78653692	     44.91661588	      0.00000000	      0.00000000	    -13.99651096	     -7.22493779	      6.26734268	     24.15735254	     44.67005929	      0.00000000	      0.00000000
     28.28914286	     -3.99395079	     -5.63896940	      7.79681171	      0.84768108	      0.91835227	      0.50644506	     -3.04119392	      5.89849411	    -19.58280474	      8.71236704	      8.71236704	     17.77220889	      6.64774427	     -3.48770195	     31.60956179	     -5.91467366	     -3.40837702	     20.43028115	     20.43028115	      2.88421505	     -7.48588458	      7.93363537	     -6.96960611	      6.74387875	      5.50936787	     40.21991732	    -18.21564958	    -13.92197860	     83.66668691	     44.91753922	      0.00000000	      0.00000000	    -14.01233247	     -7.07202489	      6.27217619	     24.21012856	     44.67126505	      0.00000000	      0.00000000
     28.30121429	     -4.06707161	     -5.53029777	      7.55284619	      0.84897728	      0.91746455	      0.50450852	     -3.10562894	      5.46335160	    -19.42620558	      9.72437041	      9.72437041	     18.41360914	      6.64552501	     -3.20741049	     31.18331596	     -5.57223826	     -2.83837408	     21.19919734	     21.19919734	      2.64321857	     -8.55158676	      7.77932187	     -6.72693035	      6.56962308	      5.69241832	     39.58270941	    -18.22915635	    -14.03831045	     83.59160113	     44.93056419	      0.00000000	      0.00000000	    -13.94526457	     -7.05116274	      6.12545692	     24.61058048	     44.71312597	      0.00000000	      0.00000000
     28.31328571	     -4.00732705	     -5.37643675	      7.31644737	      0.85050506	      0.91719284	      0.50240864	     -3.59671149	      5.09003540	    -19.21433743	     10.15728398	     10.15728398	     18.58495186	      6.65995474	     -3.17462599	     30.54993376	     -5.29747430	     -2.66847483	     21.78439922	     21.78439922	      2.70897030	     -8.93198510	      7.63896253	     -6.64469618	      6.42242703	      5.65873625	     38.78984093	    -17.97262876	    -13.96445281	     83.37351848	     44.93369370	      0.00000000	      0.00000000	    -13.78782217	     -6.95579137	      6.09799745	     24.74284007	     44.72388216	      0.00000000	      0.00000000
     28.32535714	     -4.13202170	     -5.16259091	      7.07112995	      0.85172513	      0.91690601	      0.50006924	     -3.48384540	      4.44455205	    -19.10253996	     11.40216305	     11.40216305	     19.06056029	      6.60526334	     -2.98450897	     30.09541321	     -4.83156760	     -2.14088036	     22.16865611	     22.16865611	      2.62987735	    -10.03303358	      7.41791851	     -6.39717525	      6.17768671	      5.82034184	     37.90657140	    -18.03171453	    -14.07760743	     82.98606603	     44.95401679	      0.00000000	      0.00000000	    -13.44444619	     -6.88617068	      5.90948442	     25.11233284	     44.77524958	      0.00000000	      0.00000000
     28.33742857	     -4.08746977	     -5.03840670	      6.87574749	      0.85315870	      0.91726601	      0.49769857	     -3.83724497	      4.03709023	    -18.92140536	     12.02096724	     12.02096724	     19.08545664	      6.60228650	     -2.94871682	     29.52375137	     -4.58089214	     -1.91918138	     22.57095080	     22.57095080	      2.92833536	    -10.47597369	      7.17824774	     -6.33628956	      6.04648631	      5.69035297	     36.88177200	    -17.74166231	    -13.99346662	     82.61628000	     44.96098887	      0.00000000	      0.00000000	    -13.07878331	     -6.79772592	      5.85996661	     25.27672699	     44.79415871	      0.00000000	      0.00000000
     28.34950000	     -4.24434740	     -4.78188641	      6.65019543	      0.85416377	      0.91763196	      0.49504076	     -3.49969713	      3.24405411	    -18.83280136	     13.57800509	     13.57800509	     19.32360147	      6.47255151	     -3.01734179	     29.10580062	     -4.10800088	     -1.55345049	     22.75299720	     22.75299720	      3.03809663	    -11.44320186	      6.88794177	     -6.12021585	      5.78197516	      5.82199041	     35.75791563	    -17.80793267	    -14.07031489	     81.82491848	     44.99108701	      0.00000000	      0.00000000	    -12.44901388	     -6.70835367	      5.65812917	     25.51234585	     44.85187917	      0.00000000	      0.00000000
     28.36157143	     -4.30613540	     -4.59660147	      6.46096475	      0.85523869	      0.91846579	      0.49232156	     -3.32510075	      2.56425736	    -18.73607458	     14.96145576	     14.96145576	     19.31139122	      6.39673528	     -3.17892881	     28.59134006	     -3.76040734	     -1.30969815	     22.88212347	     22.88212347	      3.32212718	    -12.15679003	      6.55492551	     -6.00260073	      5.61028585	      5.79276475	     34.52215744	    -17.68971941	    -14.07665215	     80.95610395	     45.02064012	      0.00000000	      0.00000000	    -11.74797103	     -6.60898851	      5.44557805	     25.63043143	     44.91335083	      0.00000000	      0.00000000
     28.37364286	     -4.17943608	     -4.60216795	      6.36447542	      0.85646342	      0.91988331	      0.48955299	     -3.51324510	      2.19836498	    -18.59679964	     15.93897330	     15.93897330	     18.95736687	      6.31967315	     -3.28603386	     27.93147621	     -3.66824543	     -1.15941897	     23.05019595	     23.05019595	      3.87195795	    -12.41934037	      6.30421817	     -6.10255495	      5.70936073	      5.50999610	     33.17972129	    -17.27773670	    -13.92391925	     80.34093655	     45.03094399	      0.00000000	      0.00000000	    -11.04562824	     -6.46657283	      5.41197446	     25.85278315	     44.93397854	      0.00000000	      0.00000000
     28.38571429	     -4.37733932	     -4.22716928	      6.06356938	      0.85716053	      0.92087689	      0.48671900	     -2.56561756	      1.04132042	    -18.38182066	     18.50492311	     18.50492311	     18.83258163	      5.86890648	     -4.15047471	     27.44447136	     -3.20714682	     -1.36872712	     22.96527528	     22.96527528	      4.26666505	    -12.84450296	      6.06779873	     -5.91019143	      5.28763346	      5.73926253	     31.79543036	    -17.50942573	    -13.95141760	     78.82602472	     45.08016100	      0.00000000	      0.00000000	    -10.09375125	     -6.49839784	      5.18542791	     26.00987241	     44.99796670	      0.00000000	      0.00000000
